#!OML:ASF F:\VICON\USERDATA\INSTALL\Justin_Nancy\Justin_Nancy.ASF
:FULLY-SPECIFIED
:DEGREES
206
root -6.35563 17.0549 12.3171 5.04535 -44.5539 -6.6578
lowerback 5.91268 1.68281 5.81553
upperback 0.110701 2.72097 4.00054
thorax -3.12961 1.27298 0.65181
lowerneck -14.4163 -3.86556 -10.2024
upperneck 21.9238 -4.15595 4.80693
head 9.64181 -2.29429 2.84397
rclavicle -3.62285e-014 -1.11319e-014
rhumerus -26.9589 -7.6324 -77.7124
rradius 39.6473
rwrist 1.66189
rhand -16.6549 10.9861
rfingers 7.12502
rthumb 9.56836 -18.7766
lclavicle -3.62285e-014 -1.11319e-014
lhumerus -38.8046 14.1235 81.2837
lradius 24.7642
lwrist -15.2505
lhand -10.9128 26.9867
lfingers 7.12502
lthumb 15.1045 56.4156
rfemur 9.12295 6.61427 34.1393
rtibia 17.6794
rfoot -16.4638 -8.13303
rtoes -0.0978052
lfemur -33.2212 -4.66015 -10.5607
ltibia 30.7778
lfoot -10.6998 10.8633
ltoes -5.26375
207
root -6.51331 17.0275 12.5177 5.37008 -44.9657 -6.78081
lowerback 5.61616 1.8748 5.98022
upperback 0.134798 2.95558 3.87494
thorax -2.91595 1.39184 0.423084
lowerneck -14.6523 -3.93683 -10.0086
upperneck 21.9401 -4.29979 4.90076
head 9.69996 -2.33076 2.82363
rclavicle -1.92821e-014 2.14687e-014
rhumerus -26.6954 -7.51343 -77.8466
rradius 40.3422
rwrist 1.34144
rhand -16.866 11.4575
rfingers 7.12502
rthumb 9.36463 -18.3145
lclavicle -1.92821e-014 2.14687e-014
lhumerus -38.9453 14.8237 80.764
lradius 24.4417
lwrist -16.2752
lhand -10.8179 26.9886
lfingers 7.12502
lthumb 15.1959 56.4106
rfemur 10.1995 6.76531 34.1303
rtibia 17.0224
rfoot -16.4532 -8.03661
rtoes -1.27238
lfemur -33.2437 -6.02967 -9.87072
ltibia 28.1294
lfoot -11.1381 12.6557
ltoes -5.84686
208
root -6.67303 17.0058 12.7136 5.5895 -45.3873 -6.83499
lowerback 5.49089 2.16452 6.11003
upperback 0.192721 3.32902 3.63552
thorax -2.75057 1.57994 0.0831146
lowerneck -14.8891 -4.11719 -9.45747
upperneck 21.7547 -4.63169 4.79986
head 9.68799 -2.44199 2.64786
rclavicle -4.27387e-014 3.33958e-014
rhumerus -26.4649 -8.07998 -77.8826
rradius 40.9672
rwrist 1.23386
rhand -16.7603 11.961
rfingers 7.12502
rthumb 9.4666 -17.8064
lclavicle -4.27387e-014 3.33958e-014
lhumerus -38.7102 14.677 80.5224
lradius 23.95
lwrist -16.6748
lhand -11.1815 27.1017
lfingers 7.12502
lthumb 14.8456 56.5499
rfemur 11.2691 6.8561 34.0282
rtibia 16.429
rfoot -16.4667 -7.67165
rtoes -1.86582
lfemur -33.3818 -7.23088 -9.23838
ltibia 25.9534
lfoot -11.6165 14.2252
ltoes -5.42813
209
root -6.83367 16.9921 12.9109 5.70966 -45.8231 -6.75811
lowerback 5.26749 2.39632 6.15215
upperback 0.223528 3.61471 3.47554
thorax -2.56821 1.72641 -0.113656
lowerneck -14.9326 -4.24748 -9.54912
upperneck 21.6961 -4.84501 5.05186
head 9.70102 -2.51864 2.72214
rclavicle 9.01488e-014 -4.77083e-015
rhumerus -26.3478 -8.29287 -77.831
rradius 41.6063
rwrist 0.99401
rhand -16.7386 12.1203
rfingers 7.12502
rthumb 9.48753 -17.6461
lclavicle 9.01488e-014 -4.77083e-015
lhumerus -38.8122 15.1534 80.1414
lradius 23.6662
lwrist -17.4376
lhand -11.3632 27.0421
lfingers 7.12502
lthumb 14.6706 56.5031
rfemur 12.27 6.82963 33.7163
rtibia 15.9631
rfoot -16.4129 -6.83416
rtoes -1.53437
lfemur -33.5606 -8.02645 -8.91129
ltibia 24.2013
lfoot -11.8678 15.5489
ltoes -6.67092
210
root -6.99438 16.9722 13.1075 5.88754 -46.1547 -6.7008
lowerback 4.99308 2.45529 6.08833
upperback 0.15879 3.66942 3.46584
thorax -2.48219 1.75604 -0.0804856
lowerneck -15.1632 -4.21731 -9.79835
upperneck 22.0071 -4.76257 5.19181
head 9.85852 -2.48698 2.82417
rclavicle -1.97294e-014 3.18055e-015
rhumerus -26.2389 -8.13563 -77.72
rradius 42.0433
rwrist 0.772142
rhand -16.5319 12.3002
rfingers 7.12502
rthumb 9.68696 -17.4571
lclavicle -1.97294e-014 3.18055e-015
lhumerus -39.3949 16.6565 79.3447
lradius 23.6275
lwrist -18.8689
lhand -11.0421 27.1465
lfingers 7.12502
lthumb 14.98 56.5847
rfemur 13.0884 7.1687 33.5373
rtibia 15.8413
rfoot -16.2442 -6.22441
rtoes -0.59282
lfemur -33.8625 -7.93124 -8.94243
ltibia 22.8789
lfoot -12.1474 15.7895
ltoes -7.38909
211
root -7.15493 16.9437 13.3032 5.96571 -46.5086 -6.71062
lowerback 5.07232 2.47221 5.92521
upperback -0.044308 3.70534 3.51792
thorax -2.74957 1.7672 0.0515111
lowerneck -15.0952 -4.05989 -9.78777
upperneck 22.2637 -4.54106 5.09569
head 9.91565 -2.40092 2.82193
rclavicle 5.22804e-014 -2.22639e-014
rhumerus -26.2909 -8.30403 -77.5423
rradius 42.185
rwrist 0.956471
rhand -16.0374 13.1887
rfingers 7.12502
rthumb 10.1641 -16.5458
lclavicle 5.22804e-014 -2.22639e-014
lhumerus -40.3075 17.5415 78.7777
lradius 23.7782
lwrist -19.1097
lhand -11.1428 27.2285
lfingers 7.12502
lthumb 14.8829 56.6739
rfemur 13.952 7.55746 33.461
rtibia 15.937
rfoot -16.1803 -5.65451
rtoes 1.56777
lfemur -33.9973 -7.58711 -9.10942
ltibia 22.0539
lfoot -12.9022 15.2379
ltoes -6.80915
212
root -7.31266 16.915 13.4972 5.87011 -46.7518 -6.63613
lowerback 5.17874 2.42597 5.7355
upperback -0.100057 3.64734 3.57288
thorax -2.88483 1.73757 0.210034
lowerneck -15.0636 -3.92845 -9.80931
upperneck 22.3558 -4.34197 5.02669
head 9.92483 -2.32125 2.82946
rclavicle -2.77305e-014 -2.70347e-014
rhumerus -25.9781 -8.41573 -77.4872
rradius 42.0354
rwrist 0.985554
rhand -16.0325 13.9335
rfingers 7.12502
rthumb 10.1688 -15.8008
lclavicle -2.77305e-014 -2.70347e-014
lhumerus -40.789 18.24 78.4422
lradius 23.5745
lwrist -18.9127
lhand -11.5609 26.9819
lfingers 7.12502
lthumb 14.4801 56.4566
rfemur 14.7263 7.72756 33.3193
rtibia 16.2641
rfoot -15.9573 -5.12354
rtoes 1.42444
lfemur -33.9301 -6.71332 -9.71246
ltibia 21.6694
lfoot -13.4651 13.419
ltoes -7.43956
213
root -7.47164 16.8923 13.6955 5.68768 -46.7518 -6.45026
lowerback 5.12629 2.39154 5.6472
upperback -0.0343957 3.58632 3.49107
thorax -2.7893 1.71164 0.18257
lowerneck -15.4074 -3.95466 -9.60314
upperneck 22.5767 -4.37299 4.90365
head 10.0633 -2.33013 2.74568
rclavicle 3.47873e-016 1.66979e-014
rhumerus -25.5584 -8.84729 -77.4375
rradius 41.7849
rwrist 0.857242
rhand -16.2249 14.0971
rfingers 7.12502
rthumb 9.98322 -15.6461
lclavicle 3.47873e-016 1.66979e-014
lhumerus -40.8244 18.5938 78.2323
lradius 23.3149
lwrist -18.8236
lhand -11.6003 26.9601
lfingers 7.12502
lthumb 14.4422 56.4375
rfemur 15.4086 7.50708 33.0291
rtibia 16.7564
rfoot -15.6441 -4.42755
rtoes -0.2006
lfemur -33.8256 -5.28008 -10.8123
ltibia 21.754
lfoot -13.4315 10.8512
ltoes -9.58642
214
root -7.63451 16.8776 13.9018 5.1944 -46.657 -5.97954
lowerback 5.15305 2.41123 5.47317
upperback 0.0236569 3.59828 3.28865
thorax -2.74087 1.72206 0.0693469
lowerneck -15.5668 -4.04092 -9.27242
upperneck 22.6308 -4.52332 4.73211
head 10.112 -2.3886 2.60725
rclavicle 3.35946e-014 3.97569e-015
rhumerus -25.6093 -9.61954 -77.1853
rradius 41.8342
rwrist 0.918773
rhand -16.122 13.9325
rfingers 7.12502
rthumb 10.0824 -15.806
lclavicle 3.35946e-014 3.97569e-015
lhumerus -40.8953 18.8493 77.937
lradius 23.1995
lwrist -19.1339
lhand -10.8652 27.2851
lfingers 7.12502
lthumb 15.1504 56.7105
rfemur 16.0422 7.05868 32.4788
rtibia 17.5024
rfoot -15.2245 -3.76278
rtoes -2.22357
lfemur -33.5389 -3.92408 -12.2064
ltibia 22.2001
lfoot -12.8047 8.30372
ltoes -10.1286
215
root -7.80018 16.8625 14.1075 4.67776 -46.4974 -5.63162
lowerback 5.23456 2.35424 5.35978
upperback 0.077507 3.51766 3.18419
thorax -2.73375 1.68441 0.0273003
lowerneck -15.4279 -4.03944 -9.30234
upperneck 22.5561 -4.53463 4.76987
head 10.0614 -2.39322 2.62506
rclavicle 8.09551e-014 2.38542e-015
rhumerus -25.8328 -9.96558 -76.9368
rradius 42.0363
rwrist 0.856674
rhand -15.91 13.9486
rfingers 7.12502
rthumb 10.287 -15.7798
lclavicle 8.09551e-014 2.38542e-015
lhumerus -41.1099 18.8265 77.8672
lradius 23.2208
lwrist -18.9585
lhand -10.1923 27.5022
lfingers 7.12502
lthumb 15.7984 56.8776
rfemur 16.6821 6.66984 32.064
rtibia 18.4131
rfoot -14.6392 -3.01008
rtoes -4.56292
lfemur -33.1954 -2.70589 -13.5048
ltibia 23.1114
lfoot -11.9907 6.01574
ltoes -10.4393
216
root -7.9658 16.8496 14.3068 4.27084 -46.3158 -5.45761
lowerback 5.35851 2.22792 5.11586
upperback 0.0786127 3.34855 3.36034
thorax -2.83289 1.60217 0.349811
lowerneck -15.0135 -3.97623 -9.76273
upperneck 22.4072 -4.38055 4.82983
head 9.93214 -2.35925 2.74729
rclavicle 1.10325e-013 -2.38542e-015
rhumerus -26.0157 -9.89025 -76.5395
rradius 42.141
rwrist 0.517315
rhand -15.9016 13.8895
rfingers 7.12502
rthumb 10.2951 -15.8385
lclavicle 1.10325e-013 -2.38542e-015
lhumerus -41.3576 19.239 77.9452
lradius 22.9195
lwrist -18.7915
lhand -10.2814 27.1128
lfingers 7.12502
lthumb 15.7126 56.4949
rfemur 17.1185 6.47608 31.8511
rtibia 19.6175
rfoot -13.8543 -2.12601
rtoes -4.36217
lfemur -32.8689 -1.7795 -14.5684
ltibia 24.3631
lfoot -11.2753 4.29753
ltoes -13.2738
